<mxfile host="app.diagrams.net" modified="2024-07-08T09:47:28.378Z" agent="Mozilla/5.0 (Macintosh; Intel Mac OS X 10_15_7) AppleWebKit/537.36 (KHTML, like Gecko) Chrome/125.0.0.0 Safari/537.36" etag="yQyZ7NGIYioVb0O2Vlvy" version="24.6.4" type="github">
  <diagram name="第 1 页" id="De4AOGFtYbDD9tj2pV_y">
    <mxGraphModel dx="4071" dy="2179" grid="1" gridSize="10" guides="1" tooltips="1" connect="1" arrows="1" fold="1" page="1" pageScale="1" pageWidth="827" pageHeight="1169" math="0" shadow="0">
      <root>
        <mxCell id="0" />
        <mxCell id="1" parent="0" />
        <mxCell id="wozH4koWUHIHTD2oKlZO-29" style="edgeStyle=orthogonalEdgeStyle;rounded=0;orthogonalLoop=1;jettySize=auto;html=1;" edge="1" parent="1" source="wozH4koWUHIHTD2oKlZO-1" target="wozH4koWUHIHTD2oKlZO-8">
          <mxGeometry relative="1" as="geometry" />
        </mxCell>
        <mxCell id="wozH4koWUHIHTD2oKlZO-1" value="&lt;em style=&quot;font-weight: 400; text-align: left; white-space-collapse: preserve; background-color: rgb(251, 251, 251);&quot;&gt;activity_equity_bag&lt;/em&gt;&lt;span style=&quot;background-color: rgb(213, 232, 212);&quot;&gt;（活动权益包)&lt;/span&gt;" style="shape=table;startSize=30;container=1;collapsible=1;childLayout=tableLayout;fixedRows=1;rowLines=0;fontStyle=1;align=center;resizeLast=1;html=1;labelBackgroundColor=default;fillColor=#d5e8d4;strokeColor=#82b366;" vertex="1" parent="1">
          <mxGeometry x="-2302" y="-930" width="470" height="290" as="geometry" />
        </mxCell>
        <mxCell id="wozH4koWUHIHTD2oKlZO-2" value="" style="shape=tableRow;horizontal=0;startSize=0;swimlaneHead=0;swimlaneBody=0;fillColor=none;collapsible=0;dropTarget=0;points=[[0,0.5],[1,0.5]];portConstraint=eastwest;top=0;left=0;right=0;bottom=1;" vertex="1" parent="wozH4koWUHIHTD2oKlZO-1">
          <mxGeometry y="30" width="470" height="30" as="geometry" />
        </mxCell>
        <mxCell id="wozH4koWUHIHTD2oKlZO-3" value="PK" style="shape=partialRectangle;connectable=0;fillColor=none;top=0;left=0;bottom=0;right=0;fontStyle=1;overflow=hidden;whiteSpace=wrap;html=1;" vertex="1" parent="wozH4koWUHIHTD2oKlZO-2">
          <mxGeometry width="30" height="30" as="geometry">
            <mxRectangle width="30" height="30" as="alternateBounds" />
          </mxGeometry>
        </mxCell>
        <mxCell id="wozH4koWUHIHTD2oKlZO-4" value="`ID` bigint(20) NOT NULL AUTO_INCREMENT COMMENT &#39;自增ID&#39;" style="shape=partialRectangle;connectable=0;fillColor=none;top=0;left=0;bottom=0;right=0;align=left;spacingLeft=6;fontStyle=5;overflow=hidden;whiteSpace=wrap;html=1;" vertex="1" parent="wozH4koWUHIHTD2oKlZO-2">
          <mxGeometry x="30" width="440" height="30" as="geometry">
            <mxRectangle width="440" height="30" as="alternateBounds" />
          </mxGeometry>
        </mxCell>
        <mxCell id="wozH4koWUHIHTD2oKlZO-5" value="" style="shape=tableRow;horizontal=0;startSize=0;swimlaneHead=0;swimlaneBody=0;fillColor=none;collapsible=0;dropTarget=0;points=[[0,0.5],[1,0.5]];portConstraint=eastwest;top=0;left=0;right=0;bottom=0;" vertex="1" parent="wozH4koWUHIHTD2oKlZO-1">
          <mxGeometry y="60" width="470" height="230" as="geometry" />
        </mxCell>
        <mxCell id="wozH4koWUHIHTD2oKlZO-6" value="" style="shape=partialRectangle;connectable=0;fillColor=none;top=0;left=0;bottom=0;right=0;editable=1;overflow=hidden;whiteSpace=wrap;html=1;" vertex="1" parent="wozH4koWUHIHTD2oKlZO-5">
          <mxGeometry width="30" height="230" as="geometry">
            <mxRectangle width="30" height="230" as="alternateBounds" />
          </mxGeometry>
        </mxCell>
        <mxCell id="wozH4koWUHIHTD2oKlZO-7" value="&lt;div style=&quot;line-height: 130%;&quot;&gt;&lt;div style=&quot;line-height: 130%;&quot;&gt;&lt;div style=&quot;line-height: 130%;&quot;&gt;&lt;div style=&quot;line-height: 130%;&quot;&gt;&lt;div style=&quot;line-height: 130%;&quot;&gt;&lt;div data-docx-has-block-data=&quot;false&quot; data-page-id=&quot;Co8VdgC0moM7NCxHO37cvej0neh&quot;&gt;&lt;div class=&quot;old-record-id-Ze5vdnJgfoNHqzxl2qscwm99n2c&quot; style=&quot;&quot;&gt;&lt;div class=&quot;old-record-id-Ze5vdnJgfoNHqzxl2qscwm99n2c&quot;&gt;&lt;div data-docx-has-block-data=&quot;false&quot; data-page-id=&quot;NvuWdaZeMolkfJxWdABclu5wnZb&quot;&gt;&lt;div class=&quot;old-record-id-QTNEdN7cpoGi0txkAPdcTSP8n4N&quot; style=&quot;white-space:pre;&quot;&gt;&lt;div data-docx-has-block-data=&quot;false&quot; data-page-id=&quot;Fh9HdJWjBoTVEhxsYV9cNeLmnhc&quot;&gt;&lt;div class=&quot;old-record-id-XcHudn9lnoD9ONxzxKbcXLS5nLc&quot;&gt;CREATE TABLE `&lt;em&gt;activity_equity_bag&lt;/em&gt;` (&lt;br/&gt;  `id` bigint(20) NOT NULL AUTO_INCREMENT,&lt;br/&gt;  `code` varchar(64) DEFAULT NULL COMMENT &#39;批次编号&#39;,&lt;br/&gt;  `name` varchar(64) DEFAULT NULL COMMENT &#39;批次名称&#39;,&lt;br/&gt;  `start_time` datetime DEFAULT NULL COMMENT &#39;开始时间&#39;,&lt;br/&gt;  `end_time` datetime DEFAULT NULL COMMENT &#39;结束时间&#39;,&lt;br/&gt;  `price` decimal(8,2)  DEFAULT NULL COMMENT &#39;权益价格&#39;,&lt;br/&gt;  `create_id` bigint(20) DEFAULT &#39;0&#39; COMMENT &#39;创建人&#39;,&lt;br/&gt;  `create_time` datetime DEFAULT NULL COMMENT &#39;创建时间&#39;,&lt;br/&gt;  `update_id` bigint(20) DEFAULT &#39;0&#39; COMMENT &#39;更新人&#39;,&lt;br/&gt;  `update_time` datetime DEFAULT NULL COMMENT &#39;更新时间&#39;,&lt;br/&gt;  `deleted` tinyint(1) DEFAULT &#39;0&#39; COMMENT &#39;0未删除 1删除&#39;,&lt;br/&gt;  PRIMARY KEY (`id`)&lt;br/&gt;) ENGINE=InnoDB DEFAULT CHARSET=utf8mb4 COMMENT=&#39;活动权益包&#39;;&lt;/div&gt;&lt;/div&gt;&lt;span class=&quot;lark-record-clipboard&quot; data-lark-record-format=&quot;docx/text&quot; data-lark-record-data=&quot;{&amp;quot;rootId&amp;quot;:&amp;quot;Fh9HdJWjBoTVEhxsYV9cNeLmnhc&amp;quot;,&amp;quot;text&amp;quot;:{&amp;quot;initialAttributedTexts&amp;quot;:{&amp;quot;text&amp;quot;:{&amp;quot;0&amp;quot;:&amp;quot;CREATE TABLE `activity_equity_bag` (\n  `id` bigint(20) NOT NULL AUTO_INCREMENT,\n  `code` varchar(64) DEFAULT NULL COMMENT &#39;批次编号&#39;,\n  `name` varchar(64) DEFAULT NULL COMMENT &#39;批次名称&#39;,\n  `start_time` datetime DEFAULT NULL COMMENT &#39;开始时间&#39;,\n  `end_time` datetime DEFAULT NULL COMMENT &#39;结束时间&#39;,\n  `price` decimal(8,2)  DEFAULT NULL COMMENT &#39;权益价格&#39;,\n  `create_id` bigint(20) DEFAULT &#39;0&#39; COMMENT &#39;创建人&#39;,\n  `create_time` datetime DEFAULT NULL COMMENT &#39;创建时间&#39;,\n  `update_id` bigint(20) DEFAULT &#39;0&#39; COMMENT &#39;更新人&#39;,\n  `update_time` datetime DEFAULT NULL COMMENT &#39;更新时间&#39;,\n  `deleted` tinyint(1) DEFAULT &#39;0&#39; COMMENT &#39;0未删除 1删除&#39;,\n  PRIMARY KEY (`id`)\n) ENGINE=InnoDB DEFAULT CHARSET=utf8mb4 COMMENT=&#39;活动权益包&#39;;&amp;quot;},&amp;quot;attribs&amp;quot;:{&amp;quot;0&amp;quot;:&amp;quot;*0+e*0*1+j*0|d+gg*0+1k&amp;quot;}},&amp;quot;apool&amp;quot;:{&amp;quot;numToAttrib&amp;quot;:{&amp;quot;0&amp;quot;:[&amp;quot;author&amp;quot;,&amp;quot;7220235268358848515&amp;quot;],&amp;quot;1&amp;quot;:[&amp;quot;italic&amp;quot;,&amp;quot;true&amp;quot;]},&amp;quot;nextNum&amp;quot;:2}},&amp;quot;type&amp;quot;:&amp;quot;text&amp;quot;,&amp;quot;referenceRecordMap&amp;quot;:{},&amp;quot;extra&amp;quot;:{&amp;quot;channel&amp;quot;:&amp;quot;saas&amp;quot;,&amp;quot;pasteRandomId&amp;quot;:&amp;quot;ca19a98d-9265-4a86-a47d-aa1c188d7588&amp;quot;,&amp;quot;mention_page_title&amp;quot;:{},&amp;quot;external_mention_url&amp;quot;:{}},&amp;quot;isKeepQuoteContainer&amp;quot;:false,&amp;quot;isFromCode&amp;quot;:true,&amp;quot;selection&amp;quot;:[{&amp;quot;id&amp;quot;:13,&amp;quot;type&amp;quot;:&amp;quot;text&amp;quot;,&amp;quot;selection&amp;quot;:{&amp;quot;start&amp;quot;:0,&amp;quot;end&amp;quot;:681},&amp;quot;recordId&amp;quot;:&amp;quot;XcHudn9lnoD9ONxzxKbcXLS5nLc&amp;quot;}],&amp;quot;payloadMap&amp;quot;:{},&amp;quot;isCut&amp;quot;:false}&quot;&gt;&lt;/span&gt;&lt;/div&gt;&lt;/div&gt;&lt;span class=&quot;lark-record-clipboard&quot; data-lark-record-format=&quot;docx/text&quot; data-lark-record-data=&quot;{&amp;quot;rootId&amp;quot;:&amp;quot;NvuWdaZeMolkfJxWdABclu5wnZb&amp;quot;,&amp;quot;text&amp;quot;:{&amp;quot;initialAttributedTexts&amp;quot;:{&amp;quot;text&amp;quot;:{&amp;quot;0&amp;quot;:&amp;quot;CREATE TABLE `square_activity` (\n  `id` bigint(11) NOT NULL AUTO_INCREMENT,\n  `activity_id` bigint(20) DEFAULT NULL COMMENT &#39;活动id&#39;,\n  `activity_code` varchar(64) DEFAULT NULL COMMENT &#39;活动编码&#39;,\n  `activity_name` varchar(200) DEFAULT NULL COMMENT &#39;活动名称&#39;,\n  `activity_start_time` datetime DEFAULT NULL COMMENT &#39;活动开始时间&#39;,\n  `activity_end_time` datetime DEFAULT NULL COMMENT &#39;活动结束时间&#39;,\n  `activity_status` datetime DEFAULT NULL COMMENT &#39;活动状态 0.无效 1.有效&#39;,\n  `activity_type` tinyint(1) NOT NULL COMMENT &#39;活动类型：0.市场活动 1.满减活动 2.返券活动 4.礼券活动&#39;,\n  `activity_create_time` datetime DEFAULT NULL COMMENT &#39;活动创建时间&#39;,\n  `create_id` bigint(20) DEFAULT &#39;0&#39; COMMENT &#39;创建人&#39;,\n  `create_time` datetime DEFAULT NULL COMMENT &#39;创建时间&#39;,\n  `update_id` bigint(20) DEFAULT &#39;0&#39; COMMENT &#39;更新人&#39;,\n  `update_time` datetime DEFAULT NULL COMMENT &#39;更新时间&#39;,\n  `deleted` tinyint(1) DEFAULT &#39;0&#39; COMMENT &#39;0未删除 1删除&#39;,\n  PRIMARY KEY (`id`)\n) ENGINE=InnoDB DEFAULT CHARSET=utf8mb4 COMMENT=&#39;活动广场表&#39;;&amp;quot;},&amp;quot;attribs&amp;quot;:{&amp;quot;0&amp;quot;:&amp;quot;*0|g+og*0+1k&amp;quot;}},&amp;quot;apool&amp;quot;:{&amp;quot;numToAttrib&amp;quot;:{&amp;quot;0&amp;quot;:[&amp;quot;author&amp;quot;,&amp;quot;7220235268358848515&amp;quot;]},&amp;quot;nextNum&amp;quot;:1}},&amp;quot;type&amp;quot;:&amp;quot;text&amp;quot;,&amp;quot;referenceRecordMap&amp;quot;:{},&amp;quot;extra&amp;quot;:{&amp;quot;channel&amp;quot;:&amp;quot;saas&amp;quot;,&amp;quot;pasteRandomId&amp;quot;:&amp;quot;44fd6253-43ac-45ac-8588-8f718b8ea525&amp;quot;,&amp;quot;mention_page_title&amp;quot;:{},&amp;quot;external_mention_url&amp;quot;:{}},&amp;quot;isKeepQuoteContainer&amp;quot;:false,&amp;quot;isFromCode&amp;quot;:true,&amp;quot;selection&amp;quot;:[{&amp;quot;id&amp;quot;:14,&amp;quot;type&amp;quot;:&amp;quot;text&amp;quot;,&amp;quot;selection&amp;quot;:{&amp;quot;start&amp;quot;:0,&amp;quot;end&amp;quot;:936},&amp;quot;recordId&amp;quot;:&amp;quot;QTNEdN7cpoGi0txkAPdcTSP8n4N&amp;quot;}],&amp;quot;payloadMap&amp;quot;:{},&amp;quot;isCut&amp;quot;:false}&quot;&gt;&lt;/span&gt;&lt;/div&gt;&lt;/div&gt;&lt;/div&gt;&lt;/div&gt;&lt;/div&gt;&lt;/div&gt;&lt;/div&gt;&lt;/div&gt;" style="shape=partialRectangle;connectable=0;fillColor=default;top=0;left=0;bottom=0;right=0;align=left;spacingLeft=6;overflow=hidden;whiteSpace=wrap;html=1;" vertex="1" parent="wozH4koWUHIHTD2oKlZO-5">
          <mxGeometry x="30" width="440" height="230" as="geometry">
            <mxRectangle width="440" height="230" as="alternateBounds" />
          </mxGeometry>
        </mxCell>
        <mxCell id="wozH4koWUHIHTD2oKlZO-8" value="&lt;em style=&quot;font-weight: 400; text-align: left; white-space-collapse: preserve; background-color: rgb(251, 251, 251);&quot;&gt;activity_equity_bag&lt;/em&gt;&lt;span style=&quot;background-color: rgb(213, 232, 212);&quot;&gt;（活动权益)&lt;/span&gt;" style="shape=table;startSize=30;container=1;collapsible=1;childLayout=tableLayout;fixedRows=1;rowLines=0;fontStyle=1;align=center;resizeLast=1;html=1;labelBackgroundColor=default;fillColor=#d5e8d4;strokeColor=#82b366;" vertex="1" parent="1">
          <mxGeometry x="-2302" y="-510" width="470" height="310" as="geometry" />
        </mxCell>
        <mxCell id="wozH4koWUHIHTD2oKlZO-9" value="" style="shape=tableRow;horizontal=0;startSize=0;swimlaneHead=0;swimlaneBody=0;fillColor=none;collapsible=0;dropTarget=0;points=[[0,0.5],[1,0.5]];portConstraint=eastwest;top=0;left=0;right=0;bottom=1;" vertex="1" parent="wozH4koWUHIHTD2oKlZO-8">
          <mxGeometry y="30" width="470" height="30" as="geometry" />
        </mxCell>
        <mxCell id="wozH4koWUHIHTD2oKlZO-10" value="PK" style="shape=partialRectangle;connectable=0;fillColor=none;top=0;left=0;bottom=0;right=0;fontStyle=1;overflow=hidden;whiteSpace=wrap;html=1;" vertex="1" parent="wozH4koWUHIHTD2oKlZO-9">
          <mxGeometry width="30" height="30" as="geometry">
            <mxRectangle width="30" height="30" as="alternateBounds" />
          </mxGeometry>
        </mxCell>
        <mxCell id="wozH4koWUHIHTD2oKlZO-11" value="`ID` bigint(20) NOT NULL AUTO_INCREMENT COMMENT &#39;自增ID&#39;" style="shape=partialRectangle;connectable=0;fillColor=none;top=0;left=0;bottom=0;right=0;align=left;spacingLeft=6;fontStyle=5;overflow=hidden;whiteSpace=wrap;html=1;" vertex="1" parent="wozH4koWUHIHTD2oKlZO-9">
          <mxGeometry x="30" width="440" height="30" as="geometry">
            <mxRectangle width="440" height="30" as="alternateBounds" />
          </mxGeometry>
        </mxCell>
        <mxCell id="wozH4koWUHIHTD2oKlZO-12" value="" style="shape=tableRow;horizontal=0;startSize=0;swimlaneHead=0;swimlaneBody=0;fillColor=none;collapsible=0;dropTarget=0;points=[[0,0.5],[1,0.5]];portConstraint=eastwest;top=0;left=0;right=0;bottom=0;" vertex="1" parent="wozH4koWUHIHTD2oKlZO-8">
          <mxGeometry y="60" width="470" height="250" as="geometry" />
        </mxCell>
        <mxCell id="wozH4koWUHIHTD2oKlZO-13" value="" style="shape=partialRectangle;connectable=0;fillColor=none;top=0;left=0;bottom=0;right=0;editable=1;overflow=hidden;whiteSpace=wrap;html=1;" vertex="1" parent="wozH4koWUHIHTD2oKlZO-12">
          <mxGeometry width="30" height="250" as="geometry">
            <mxRectangle width="30" height="250" as="alternateBounds" />
          </mxGeometry>
        </mxCell>
        <mxCell id="wozH4koWUHIHTD2oKlZO-14" value="&lt;div style=&quot;line-height: 130%;&quot;&gt;&lt;div style=&quot;line-height: 130%;&quot;&gt;&lt;div style=&quot;line-height: 130%;&quot;&gt;&lt;div style=&quot;line-height: 130%;&quot;&gt;&lt;div style=&quot;line-height: 130%;&quot;&gt;&lt;div data-docx-has-block-data=&quot;false&quot; data-page-id=&quot;Co8VdgC0moM7NCxHO37cvej0neh&quot;&gt;&lt;div class=&quot;old-record-id-Ze5vdnJgfoNHqzxl2qscwm99n2c&quot; style=&quot;&quot;&gt;&lt;div class=&quot;old-record-id-Ze5vdnJgfoNHqzxl2qscwm99n2c&quot;&gt;&lt;div data-docx-has-block-data=&quot;false&quot; data-page-id=&quot;NvuWdaZeMolkfJxWdABclu5wnZb&quot;&gt;&lt;div class=&quot;old-record-id-QTNEdN7cpoGi0txkAPdcTSP8n4N&quot; style=&quot;white-space:pre;&quot;&gt;&lt;div data-docx-has-block-data=&quot;false&quot; data-page-id=&quot;Fh9HdJWjBoTVEhxsYV9cNeLmnhc&quot;&gt;&lt;div class=&quot;old-record-id-XcHudn9lnoD9ONxzxKbcXLS5nLc&quot;&gt;&lt;div data-docx-has-block-data=&quot;false&quot; data-page-id=&quot;Fh9HdJWjBoTVEhxsYV9cNeLmnhc&quot;&gt;&lt;div class=&quot;old-record-id-XcHudn9lnoD9ONxzxKbcXLS5nLc&quot;&gt;CREATE TABLE `&lt;em&gt;activity_equity&lt;/em&gt;` (&lt;br&gt;  `id` bigint(20) NOT NULL AUTO_INCREMENT,&lt;br&gt;  `name` varchar(64) DEFAULT NULL COMMENT &#39;权益名称&#39;,&lt;br&gt;  `type` tinyint(1) DEFAULT NULL COMMENT &#39;权益类型：0. 售卡权益 1.预算立减 2. 其他&#39;,&lt;br&gt;  `cover` varchar(200) DEFAULT NULL COMMENT &#39;权益封面&#39;,&lt;br&gt;  `stock` int(11) DEFAULT NULL COMMENT &#39;发放数量&#39;,&lt;br&gt;  `shop_array` varchar(200) DEFAULT NULL COMMENT &#39;参与门店&#39;,&lt;br&gt;  `reward` varchar(200) DEFAULT NULL COMMENT &#39;奖励(活动编码/sku/抵扣金额)&#39;,&lt;br&gt;  `create_id` bigint(20) DEFAULT &#39;0&#39; COMMENT &#39;创建人&#39;,&lt;br&gt;  `create_time` datetime DEFAULT NULL COMMENT &#39;创建时间&#39;,&lt;br&gt;  `update_id` bigint(20) DEFAULT &#39;0&#39; COMMENT &#39;更新人&#39;,&lt;br&gt;  `update_time` datetime DEFAULT NULL COMMENT &#39;更新时间&#39;,&lt;br&gt;  `deleted` tinyint(1) DEFAULT &#39;0&#39; COMMENT &#39;0未删除 1删除&#39;,&lt;br&gt;  PRIMARY KEY (`id`)&lt;br&gt;) ENGINE=InnoDB DEFAULT CHARSET=utf8mb4 COMMENT=&#39;活动权益&#39;;&lt;/div&gt;&lt;/div&gt;&lt;span class=&quot;lark-record-clipboard&quot; data-lark-record-format=&quot;docx/text&quot; data-lark-record-data=&quot;{&amp;quot;rootId&amp;quot;:&amp;quot;Fh9HdJWjBoTVEhxsYV9cNeLmnhc&amp;quot;,&amp;quot;text&amp;quot;:{&amp;quot;initialAttributedTexts&amp;quot;:{&amp;quot;text&amp;quot;:{&amp;quot;0&amp;quot;:&amp;quot;\nCREATE TABLE `activity_equity` (\n  `id` bigint(20) NOT NULL AUTO_INCREMENT,\n  `name` varchar(64) DEFAULT NULL COMMENT &#39;权益名称&#39;,\n  `type` tinyint(1) DEFAULT NULL COMMENT &#39;权益类型：0. 售卡权益 1.预算立减 2. 其他&#39;,\n  `cover` varchar(200) DEFAULT NULL COMMENT &#39;权益封面&#39;,\n  `stock` int(11) DEFAULT NULL COMMENT &#39;发放数量&#39;,\n  `shop_array` varchar(200) DEFAULT NULL COMMENT &#39;参与门店&#39;,\n  `reward` varchar(200) DEFAULT NULL COMMENT &#39;奖励(活动编码/sku/抵扣金额)&#39;,\n  `create_id` bigint(20) DEFAULT &#39;0&#39; COMMENT &#39;创建人&#39;,\n  `create_time` datetime DEFAULT NULL COMMENT &#39;创建时间&#39;,\n  `update_id` bigint(20) DEFAULT &#39;0&#39; COMMENT &#39;更新人&#39;,\n  `update_time` datetime DEFAULT NULL COMMENT &#39;更新时间&#39;,\n  `deleted` tinyint(1) DEFAULT &#39;0&#39; COMMENT &#39;0未删除 1删除&#39;,\n  PRIMARY KEY (`id`)\n) ENGINE=InnoDB DEFAULT CHARSET=utf8mb4 COMMENT=&#39;活动权益&#39;;&amp;quot;},&amp;quot;attribs&amp;quot;:{&amp;quot;0&amp;quot;:&amp;quot;*0|1+1*0+e*0*1+f*0|e+it*0+1j&amp;quot;}},&amp;quot;apool&amp;quot;:{&amp;quot;numToAttrib&amp;quot;:{&amp;quot;0&amp;quot;:[&amp;quot;author&amp;quot;,&amp;quot;7220235268358848515&amp;quot;],&amp;quot;1&amp;quot;:[&amp;quot;italic&amp;quot;,&amp;quot;true&amp;quot;]},&amp;quot;nextNum&amp;quot;:2}},&amp;quot;type&amp;quot;:&amp;quot;text&amp;quot;,&amp;quot;referenceRecordMap&amp;quot;:{},&amp;quot;extra&amp;quot;:{&amp;quot;channel&amp;quot;:&amp;quot;saas&amp;quot;,&amp;quot;pasteRandomId&amp;quot;:&amp;quot;16af1219-03b9-49fa-b532-b1dec4a708e2&amp;quot;,&amp;quot;mention_page_title&amp;quot;:{},&amp;quot;external_mention_url&amp;quot;:{}},&amp;quot;isKeepQuoteContainer&amp;quot;:false,&amp;quot;isFromCode&amp;quot;:true,&amp;quot;selection&amp;quot;:[{&amp;quot;id&amp;quot;:13,&amp;quot;type&amp;quot;:&amp;quot;text&amp;quot;,&amp;quot;selection&amp;quot;:{&amp;quot;start&amp;quot;:682,&amp;quot;end&amp;quot;:1444},&amp;quot;recordId&amp;quot;:&amp;quot;XcHudn9lnoD9ONxzxKbcXLS5nLc&amp;quot;}],&amp;quot;payloadMap&amp;quot;:{},&amp;quot;isCut&amp;quot;:false}&quot;&gt;&lt;/span&gt;&lt;/div&gt;&lt;/div&gt;&lt;span class=&quot;lark-record-clipboard&quot; data-lark-record-format=&quot;docx/text&quot; data-lark-record-data=&quot;{&amp;quot;rootId&amp;quot;:&amp;quot;Fh9HdJWjBoTVEhxsYV9cNeLmnhc&amp;quot;,&amp;quot;text&amp;quot;:{&amp;quot;initialAttributedTexts&amp;quot;:{&amp;quot;text&amp;quot;:{&amp;quot;0&amp;quot;:&amp;quot;CREATE TABLE `activity_equity_bag` (\n  `id` bigint(20) NOT NULL AUTO_INCREMENT,\n  `code` varchar(64) DEFAULT NULL COMMENT &#39;批次编号&#39;,\n  `name` varchar(64) DEFAULT NULL COMMENT &#39;批次名称&#39;,\n  `start_time` datetime DEFAULT NULL COMMENT &#39;开始时间&#39;,\n  `end_time` datetime DEFAULT NULL COMMENT &#39;结束时间&#39;,\n  `price` decimal(8,2)  DEFAULT NULL COMMENT &#39;权益价格&#39;,\n  `create_id` bigint(20) DEFAULT &#39;0&#39; COMMENT &#39;创建人&#39;,\n  `create_time` datetime DEFAULT NULL COMMENT &#39;创建时间&#39;,\n  `update_id` bigint(20) DEFAULT &#39;0&#39; COMMENT &#39;更新人&#39;,\n  `update_time` datetime DEFAULT NULL COMMENT &#39;更新时间&#39;,\n  `deleted` tinyint(1) DEFAULT &#39;0&#39; COMMENT &#39;0未删除 1删除&#39;,\n  PRIMARY KEY (`id`)\n) ENGINE=InnoDB DEFAULT CHARSET=utf8mb4 COMMENT=&#39;活动权益包&#39;;&amp;quot;},&amp;quot;attribs&amp;quot;:{&amp;quot;0&amp;quot;:&amp;quot;*0+e*0*1+j*0|d+gg*0+1k&amp;quot;}},&amp;quot;apool&amp;quot;:{&amp;quot;numToAttrib&amp;quot;:{&amp;quot;0&amp;quot;:[&amp;quot;author&amp;quot;,&amp;quot;7220235268358848515&amp;quot;],&amp;quot;1&amp;quot;:[&amp;quot;italic&amp;quot;,&amp;quot;true&amp;quot;]},&amp;quot;nextNum&amp;quot;:2}},&amp;quot;type&amp;quot;:&amp;quot;text&amp;quot;,&amp;quot;referenceRecordMap&amp;quot;:{},&amp;quot;extra&amp;quot;:{&amp;quot;channel&amp;quot;:&amp;quot;saas&amp;quot;,&amp;quot;pasteRandomId&amp;quot;:&amp;quot;ca19a98d-9265-4a86-a47d-aa1c188d7588&amp;quot;,&amp;quot;mention_page_title&amp;quot;:{},&amp;quot;external_mention_url&amp;quot;:{}},&amp;quot;isKeepQuoteContainer&amp;quot;:false,&amp;quot;isFromCode&amp;quot;:true,&amp;quot;selection&amp;quot;:[{&amp;quot;id&amp;quot;:13,&amp;quot;type&amp;quot;:&amp;quot;text&amp;quot;,&amp;quot;selection&amp;quot;:{&amp;quot;start&amp;quot;:0,&amp;quot;end&amp;quot;:681},&amp;quot;recordId&amp;quot;:&amp;quot;XcHudn9lnoD9ONxzxKbcXLS5nLc&amp;quot;}],&amp;quot;payloadMap&amp;quot;:{},&amp;quot;isCut&amp;quot;:false}&quot;&gt;&lt;/span&gt;&lt;/div&gt;&lt;/div&gt;&lt;span class=&quot;lark-record-clipboard&quot; data-lark-record-format=&quot;docx/text&quot; data-lark-record-data=&quot;{&amp;quot;rootId&amp;quot;:&amp;quot;NvuWdaZeMolkfJxWdABclu5wnZb&amp;quot;,&amp;quot;text&amp;quot;:{&amp;quot;initialAttributedTexts&amp;quot;:{&amp;quot;text&amp;quot;:{&amp;quot;0&amp;quot;:&amp;quot;CREATE TABLE `square_activity` (\n  `id` bigint(11) NOT NULL AUTO_INCREMENT,\n  `activity_id` bigint(20) DEFAULT NULL COMMENT &#39;活动id&#39;,\n  `activity_code` varchar(64) DEFAULT NULL COMMENT &#39;活动编码&#39;,\n  `activity_name` varchar(200) DEFAULT NULL COMMENT &#39;活动名称&#39;,\n  `activity_start_time` datetime DEFAULT NULL COMMENT &#39;活动开始时间&#39;,\n  `activity_end_time` datetime DEFAULT NULL COMMENT &#39;活动结束时间&#39;,\n  `activity_status` datetime DEFAULT NULL COMMENT &#39;活动状态 0.无效 1.有效&#39;,\n  `activity_type` tinyint(1) NOT NULL COMMENT &#39;活动类型：0.市场活动 1.满减活动 2.返券活动 4.礼券活动&#39;,\n  `activity_create_time` datetime DEFAULT NULL COMMENT &#39;活动创建时间&#39;,\n  `create_id` bigint(20) DEFAULT &#39;0&#39; COMMENT &#39;创建人&#39;,\n  `create_time` datetime DEFAULT NULL COMMENT &#39;创建时间&#39;,\n  `update_id` bigint(20) DEFAULT &#39;0&#39; COMMENT &#39;更新人&#39;,\n  `update_time` datetime DEFAULT NULL COMMENT &#39;更新时间&#39;,\n  `deleted` tinyint(1) DEFAULT &#39;0&#39; COMMENT &#39;0未删除 1删除&#39;,\n  PRIMARY KEY (`id`)\n) ENGINE=InnoDB DEFAULT CHARSET=utf8mb4 COMMENT=&#39;活动广场表&#39;;&amp;quot;},&amp;quot;attribs&amp;quot;:{&amp;quot;0&amp;quot;:&amp;quot;*0|g+og*0+1k&amp;quot;}},&amp;quot;apool&amp;quot;:{&amp;quot;numToAttrib&amp;quot;:{&amp;quot;0&amp;quot;:[&amp;quot;author&amp;quot;,&amp;quot;7220235268358848515&amp;quot;]},&amp;quot;nextNum&amp;quot;:1}},&amp;quot;type&amp;quot;:&amp;quot;text&amp;quot;,&amp;quot;referenceRecordMap&amp;quot;:{},&amp;quot;extra&amp;quot;:{&amp;quot;channel&amp;quot;:&amp;quot;saas&amp;quot;,&amp;quot;pasteRandomId&amp;quot;:&amp;quot;44fd6253-43ac-45ac-8588-8f718b8ea525&amp;quot;,&amp;quot;mention_page_title&amp;quot;:{},&amp;quot;external_mention_url&amp;quot;:{}},&amp;quot;isKeepQuoteContainer&amp;quot;:false,&amp;quot;isFromCode&amp;quot;:true,&amp;quot;selection&amp;quot;:[{&amp;quot;id&amp;quot;:14,&amp;quot;type&amp;quot;:&amp;quot;text&amp;quot;,&amp;quot;selection&amp;quot;:{&amp;quot;start&amp;quot;:0,&amp;quot;end&amp;quot;:936},&amp;quot;recordId&amp;quot;:&amp;quot;QTNEdN7cpoGi0txkAPdcTSP8n4N&amp;quot;}],&amp;quot;payloadMap&amp;quot;:{},&amp;quot;isCut&amp;quot;:false}&quot;&gt;&lt;/span&gt;&lt;/div&gt;&lt;/div&gt;&lt;/div&gt;&lt;/div&gt;&lt;/div&gt;&lt;/div&gt;&lt;/div&gt;&lt;/div&gt;" style="shape=partialRectangle;connectable=0;fillColor=default;top=0;left=0;bottom=0;right=0;align=left;spacingLeft=6;overflow=hidden;whiteSpace=wrap;html=1;" vertex="1" parent="wozH4koWUHIHTD2oKlZO-12">
          <mxGeometry x="30" width="440" height="250" as="geometry">
            <mxRectangle width="440" height="250" as="alternateBounds" />
          </mxGeometry>
        </mxCell>
        <mxCell id="wozH4koWUHIHTD2oKlZO-32" style="edgeStyle=orthogonalEdgeStyle;rounded=0;orthogonalLoop=1;jettySize=auto;html=1;" edge="1" parent="1" source="wozH4koWUHIHTD2oKlZO-15" target="wozH4koWUHIHTD2oKlZO-22">
          <mxGeometry relative="1" as="geometry" />
        </mxCell>
        <mxCell id="wozH4koWUHIHTD2oKlZO-15" value="&lt;em style=&quot;font-weight: 400; text-align: left; white-space-collapse: preserve; background-color: rgb(251, 251, 251);&quot;&gt;activity_equity_bag&lt;/em&gt;&lt;span style=&quot;background-color: rgb(213, 232, 212);&quot;&gt;（活动权益订单)&lt;/span&gt;" style="shape=table;startSize=30;container=1;collapsible=1;childLayout=tableLayout;fixedRows=1;rowLines=0;fontStyle=1;align=center;resizeLast=1;html=1;labelBackgroundColor=default;fillColor=#d5e8d4;strokeColor=#82b366;" vertex="1" parent="1">
          <mxGeometry x="-1545" y="-780" width="540" height="410" as="geometry" />
        </mxCell>
        <mxCell id="wozH4koWUHIHTD2oKlZO-16" value="" style="shape=tableRow;horizontal=0;startSize=0;swimlaneHead=0;swimlaneBody=0;fillColor=none;collapsible=0;dropTarget=0;points=[[0,0.5],[1,0.5]];portConstraint=eastwest;top=0;left=0;right=0;bottom=1;" vertex="1" parent="wozH4koWUHIHTD2oKlZO-15">
          <mxGeometry y="30" width="540" height="30" as="geometry" />
        </mxCell>
        <mxCell id="wozH4koWUHIHTD2oKlZO-17" value="PK" style="shape=partialRectangle;connectable=0;fillColor=none;top=0;left=0;bottom=0;right=0;fontStyle=1;overflow=hidden;whiteSpace=wrap;html=1;" vertex="1" parent="wozH4koWUHIHTD2oKlZO-16">
          <mxGeometry width="30" height="30" as="geometry">
            <mxRectangle width="30" height="30" as="alternateBounds" />
          </mxGeometry>
        </mxCell>
        <mxCell id="wozH4koWUHIHTD2oKlZO-18" value="`ID` bigint(20) NOT NULL AUTO_INCREMENT COMMENT &#39;自增ID&#39;" style="shape=partialRectangle;connectable=0;fillColor=none;top=0;left=0;bottom=0;right=0;align=left;spacingLeft=6;fontStyle=5;overflow=hidden;whiteSpace=wrap;html=1;" vertex="1" parent="wozH4koWUHIHTD2oKlZO-16">
          <mxGeometry x="30" width="510" height="30" as="geometry">
            <mxRectangle width="510" height="30" as="alternateBounds" />
          </mxGeometry>
        </mxCell>
        <mxCell id="wozH4koWUHIHTD2oKlZO-19" value="" style="shape=tableRow;horizontal=0;startSize=0;swimlaneHead=0;swimlaneBody=0;fillColor=none;collapsible=0;dropTarget=0;points=[[0,0.5],[1,0.5]];portConstraint=eastwest;top=0;left=0;right=0;bottom=0;" vertex="1" parent="wozH4koWUHIHTD2oKlZO-15">
          <mxGeometry y="60" width="540" height="350" as="geometry" />
        </mxCell>
        <mxCell id="wozH4koWUHIHTD2oKlZO-20" value="" style="shape=partialRectangle;connectable=0;fillColor=none;top=0;left=0;bottom=0;right=0;editable=1;overflow=hidden;whiteSpace=wrap;html=1;" vertex="1" parent="wozH4koWUHIHTD2oKlZO-19">
          <mxGeometry width="30" height="350" as="geometry">
            <mxRectangle width="30" height="350" as="alternateBounds" />
          </mxGeometry>
        </mxCell>
        <mxCell id="wozH4koWUHIHTD2oKlZO-21" value="&lt;div style=&quot;line-height: 130%;&quot;&gt;&lt;div style=&quot;line-height: 130%;&quot;&gt;&lt;div style=&quot;line-height: 130%;&quot;&gt;&lt;div style=&quot;line-height: 130%;&quot;&gt;&lt;div style=&quot;line-height: 130%;&quot;&gt;&lt;div data-docx-has-block-data=&quot;false&quot; data-page-id=&quot;Co8VdgC0moM7NCxHO37cvej0neh&quot;&gt;&lt;div class=&quot;old-record-id-Ze5vdnJgfoNHqzxl2qscwm99n2c&quot; style=&quot;&quot;&gt;&lt;div class=&quot;old-record-id-Ze5vdnJgfoNHqzxl2qscwm99n2c&quot;&gt;&lt;div data-docx-has-block-data=&quot;false&quot; data-page-id=&quot;NvuWdaZeMolkfJxWdABclu5wnZb&quot;&gt;&lt;div class=&quot;old-record-id-QTNEdN7cpoGi0txkAPdcTSP8n4N&quot; style=&quot;white-space:pre;&quot;&gt;&lt;div data-docx-has-block-data=&quot;false&quot; data-page-id=&quot;Fh9HdJWjBoTVEhxsYV9cNeLmnhc&quot;&gt;&lt;div class=&quot;old-record-id-XcHudn9lnoD9ONxzxKbcXLS5nLc&quot;&gt;&lt;div data-docx-has-block-data=&quot;false&quot; data-page-id=&quot;Fh9HdJWjBoTVEhxsYV9cNeLmnhc&quot;&gt;&lt;div class=&quot;old-record-id-XcHudn9lnoD9ONxzxKbcXLS5nLc&quot;&gt;CREATE TABLE `activity_equity_order` (&lt;br/&gt;  `id` bigint(20) NOT NULL AUTO_INCREMENT,&lt;br/&gt;  `&lt;em&gt;equity_bag_id&lt;/em&gt;` bigint(20) DEFAULT NULL COMMENT &#39;权益包id&#39;,&lt;br/&gt;  `shop_code` varchar(100) DEFAULT NULL COMMENT &#39;门店code&#39;,&lt;br/&gt;  `customer_id` bigint(20) DEFAULT NULL COMMENT &#39;用户id&#39;,&lt;br/&gt;  `user_mobile` varchar(100) DEFAULT NULL COMMENT &#39;用户手机号&#39;,&lt;br/&gt;  `user_name` varchar(100) DEFAULT NULL COMMENT &#39;用户名称&#39;,&lt;br/&gt;  `business_id` varchar(64) DEFAULT NULL COMMENT &#39;业务id&#39;,&lt;br/&gt;  `business_type` tinyint(1) DEFAULT NULL COMMENT &#39;业务类型: 0.邀约活动&#39;,&lt;br/&gt;  `order_no` varchar(50) DEFAULT NULL COMMENT &#39;订单号&#39;,&lt;br/&gt;  `order_money` decimal(8,2) DEFAULT NULL COMMENT &#39;订单金额&#39;,&lt;br/&gt;  `order_status` tinyint(1) DEFAULT NULL COMMENT &#39;订单状态: 待支付0/支付中1/已支付2/失败3&#39;,&lt;br/&gt;  `pay_no` bigint(20) DEFAULT NULL COMMENT &#39;支付流水&#39;,&lt;br/&gt;  `pay_date` datetime DEFAULT NULL COMMENT &#39;支付时间&#39;,&lt;br/&gt;  `employee_id` bigint(20) DEFAULT NULL COMMENT &#39;员工&#39;,&lt;br/&gt;  `create_id` bigint(20) DEFAULT &#39;0&#39; COMMENT &#39;创建人&#39;,&lt;br/&gt;  `create_time` datetime DEFAULT NULL COMMENT &#39;创建时间&#39;,&lt;br/&gt;  `update_id` bigint(20) DEFAULT &#39;0&#39; COMMENT &#39;更新人&#39;,&lt;br/&gt;  `update_time` datetime DEFAULT NULL COMMENT &#39;更新时间&#39;,&lt;br/&gt;  `deleted` tinyint(1) DEFAULT &#39;0&#39; COMMENT &#39;0未删除 1删除&#39;,&lt;br/&gt;  PRIMARY KEY (`id`)&lt;br/&gt;) ENGINE=InnoDB DEFAULT CHARSET=utf8mb4 COMMENT=&#39;活动权益订单表&#39;;&lt;/div&gt;&lt;/div&gt;&lt;span class=&quot;lark-record-clipboard&quot; data-lark-record-format=&quot;docx/text&quot; data-lark-record-data=&quot;{&amp;quot;rootId&amp;quot;:&amp;quot;Fh9HdJWjBoTVEhxsYV9cNeLmnhc&amp;quot;,&amp;quot;text&amp;quot;:{&amp;quot;initialAttributedTexts&amp;quot;:{&amp;quot;text&amp;quot;:{&amp;quot;0&amp;quot;:&amp;quot;CREATE TABLE `activity_equity_order` (\n  `id` bigint(20) NOT NULL AUTO_INCREMENT,\n  `equity_bag_id` bigint(20) DEFAULT NULL COMMENT &#39;权益包id&#39;,\n  `shop_code` varchar(100) DEFAULT NULL COMMENT &#39;门店code&#39;,\n  `customer_id` bigint(20) DEFAULT NULL COMMENT &#39;用户id&#39;,\n  `user_mobile` varchar(100) DEFAULT NULL COMMENT &#39;用户手机号&#39;,\n  `user_name` varchar(100) DEFAULT NULL COMMENT &#39;用户名称&#39;,\n  `business_id` varchar(64) DEFAULT NULL COMMENT &#39;业务id&#39;,\n  `business_type` tinyint(1) DEFAULT NULL COMMENT &#39;业务类型: 0.邀约活动&#39;,\n  `order_no` varchar(50) DEFAULT NULL COMMENT &#39;订单号&#39;,\n  `order_money` decimal(8,2) DEFAULT NULL COMMENT &#39;订单金额&#39;,\n  `order_status` tinyint(1) DEFAULT NULL COMMENT &#39;订单状态: 待支付0/支付中1/已支付2/失败3&#39;,\n  `pay_no` bigint(20) DEFAULT NULL COMMENT &#39;支付流水&#39;,\n  `pay_date` datetime DEFAULT NULL COMMENT &#39;支付时间&#39;,\n  `employee_id` bigint(20) DEFAULT NULL COMMENT &#39;员工&#39;,\n  `create_id` bigint(20) DEFAULT &#39;0&#39; COMMENT &#39;创建人&#39;,\n  `create_time` datetime DEFAULT NULL COMMENT &#39;创建时间&#39;,\n  `update_id` bigint(20) DEFAULT &#39;0&#39; COMMENT &#39;更新人&#39;,\n  `update_time` datetime DEFAULT NULL COMMENT &#39;更新时间&#39;,\n  `deleted` tinyint(1) DEFAULT &#39;0&#39; COMMENT &#39;0未删除 1删除&#39;,\n  PRIMARY KEY (`id`)\n) ENGINE=InnoDB DEFAULT CHARSET=utf8mb4 COMMENT=&#39;活动权益订单表&#39;;&amp;quot;},&amp;quot;attribs&amp;quot;:{&amp;quot;0&amp;quot;:&amp;quot;*0|2+2a*0+3*0*1+d*0|j+sj*0+1m&amp;quot;}},&amp;quot;apool&amp;quot;:{&amp;quot;numToAttrib&amp;quot;:{&amp;quot;0&amp;quot;:[&amp;quot;author&amp;quot;,&amp;quot;7220235268358848515&amp;quot;],&amp;quot;1&amp;quot;:[&amp;quot;italic&amp;quot;,&amp;quot;true&amp;quot;]},&amp;quot;nextNum&amp;quot;:2}},&amp;quot;type&amp;quot;:&amp;quot;text&amp;quot;,&amp;quot;referenceRecordMap&amp;quot;:{},&amp;quot;extra&amp;quot;:{&amp;quot;channel&amp;quot;:&amp;quot;saas&amp;quot;,&amp;quot;pasteRandomId&amp;quot;:&amp;quot;c46bde28-36cb-46a2-acd8-2e1caee7ebdc&amp;quot;,&amp;quot;mention_page_title&amp;quot;:{},&amp;quot;external_mention_url&amp;quot;:{}},&amp;quot;isKeepQuoteContainer&amp;quot;:false,&amp;quot;isFromCode&amp;quot;:true,&amp;quot;selection&amp;quot;:[{&amp;quot;id&amp;quot;:13,&amp;quot;type&amp;quot;:&amp;quot;text&amp;quot;,&amp;quot;selection&amp;quot;:{&amp;quot;start&amp;quot;:1446,&amp;quot;end&amp;quot;:2629},&amp;quot;recordId&amp;quot;:&amp;quot;XcHudn9lnoD9ONxzxKbcXLS5nLc&amp;quot;}],&amp;quot;payloadMap&amp;quot;:{},&amp;quot;isCut&amp;quot;:false}&quot;&gt;&lt;/span&gt;&lt;/div&gt;&lt;/div&gt;&lt;span class=&quot;lark-record-clipboard&quot; data-lark-record-format=&quot;docx/text&quot; data-lark-record-data=&quot;{&amp;quot;rootId&amp;quot;:&amp;quot;Fh9HdJWjBoTVEhxsYV9cNeLmnhc&amp;quot;,&amp;quot;text&amp;quot;:{&amp;quot;initialAttributedTexts&amp;quot;:{&amp;quot;text&amp;quot;:{&amp;quot;0&amp;quot;:&amp;quot;CREATE TABLE `activity_equity_bag` (\n  `id` bigint(20) NOT NULL AUTO_INCREMENT,\n  `code` varchar(64) DEFAULT NULL COMMENT &#39;批次编号&#39;,\n  `name` varchar(64) DEFAULT NULL COMMENT &#39;批次名称&#39;,\n  `start_time` datetime DEFAULT NULL COMMENT &#39;开始时间&#39;,\n  `end_time` datetime DEFAULT NULL COMMENT &#39;结束时间&#39;,\n  `price` decimal(8,2)  DEFAULT NULL COMMENT &#39;权益价格&#39;,\n  `create_id` bigint(20) DEFAULT &#39;0&#39; COMMENT &#39;创建人&#39;,\n  `create_time` datetime DEFAULT NULL COMMENT &#39;创建时间&#39;,\n  `update_id` bigint(20) DEFAULT &#39;0&#39; COMMENT &#39;更新人&#39;,\n  `update_time` datetime DEFAULT NULL COMMENT &#39;更新时间&#39;,\n  `deleted` tinyint(1) DEFAULT &#39;0&#39; COMMENT &#39;0未删除 1删除&#39;,\n  PRIMARY KEY (`id`)\n) ENGINE=InnoDB DEFAULT CHARSET=utf8mb4 COMMENT=&#39;活动权益包&#39;;&amp;quot;},&amp;quot;attribs&amp;quot;:{&amp;quot;0&amp;quot;:&amp;quot;*0+e*0*1+j*0|d+gg*0+1k&amp;quot;}},&amp;quot;apool&amp;quot;:{&amp;quot;numToAttrib&amp;quot;:{&amp;quot;0&amp;quot;:[&amp;quot;author&amp;quot;,&amp;quot;7220235268358848515&amp;quot;],&amp;quot;1&amp;quot;:[&amp;quot;italic&amp;quot;,&amp;quot;true&amp;quot;]},&amp;quot;nextNum&amp;quot;:2}},&amp;quot;type&amp;quot;:&amp;quot;text&amp;quot;,&amp;quot;referenceRecordMap&amp;quot;:{},&amp;quot;extra&amp;quot;:{&amp;quot;channel&amp;quot;:&amp;quot;saas&amp;quot;,&amp;quot;pasteRandomId&amp;quot;:&amp;quot;ca19a98d-9265-4a86-a47d-aa1c188d7588&amp;quot;,&amp;quot;mention_page_title&amp;quot;:{},&amp;quot;external_mention_url&amp;quot;:{}},&amp;quot;isKeepQuoteContainer&amp;quot;:false,&amp;quot;isFromCode&amp;quot;:true,&amp;quot;selection&amp;quot;:[{&amp;quot;id&amp;quot;:13,&amp;quot;type&amp;quot;:&amp;quot;text&amp;quot;,&amp;quot;selection&amp;quot;:{&amp;quot;start&amp;quot;:0,&amp;quot;end&amp;quot;:681},&amp;quot;recordId&amp;quot;:&amp;quot;XcHudn9lnoD9ONxzxKbcXLS5nLc&amp;quot;}],&amp;quot;payloadMap&amp;quot;:{},&amp;quot;isCut&amp;quot;:false}&quot;&gt;&lt;/span&gt;&lt;/div&gt;&lt;/div&gt;&lt;span class=&quot;lark-record-clipboard&quot; data-lark-record-format=&quot;docx/text&quot; data-lark-record-data=&quot;{&amp;quot;rootId&amp;quot;:&amp;quot;NvuWdaZeMolkfJxWdABclu5wnZb&amp;quot;,&amp;quot;text&amp;quot;:{&amp;quot;initialAttributedTexts&amp;quot;:{&amp;quot;text&amp;quot;:{&amp;quot;0&amp;quot;:&amp;quot;CREATE TABLE `square_activity` (\n  `id` bigint(11) NOT NULL AUTO_INCREMENT,\n  `activity_id` bigint(20) DEFAULT NULL COMMENT &#39;活动id&#39;,\n  `activity_code` varchar(64) DEFAULT NULL COMMENT &#39;活动编码&#39;,\n  `activity_name` varchar(200) DEFAULT NULL COMMENT &#39;活动名称&#39;,\n  `activity_start_time` datetime DEFAULT NULL COMMENT &#39;活动开始时间&#39;,\n  `activity_end_time` datetime DEFAULT NULL COMMENT &#39;活动结束时间&#39;,\n  `activity_status` datetime DEFAULT NULL COMMENT &#39;活动状态 0.无效 1.有效&#39;,\n  `activity_type` tinyint(1) NOT NULL COMMENT &#39;活动类型：0.市场活动 1.满减活动 2.返券活动 4.礼券活动&#39;,\n  `activity_create_time` datetime DEFAULT NULL COMMENT &#39;活动创建时间&#39;,\n  `create_id` bigint(20) DEFAULT &#39;0&#39; COMMENT &#39;创建人&#39;,\n  `create_time` datetime DEFAULT NULL COMMENT &#39;创建时间&#39;,\n  `update_id` bigint(20) DEFAULT &#39;0&#39; COMMENT &#39;更新人&#39;,\n  `update_time` datetime DEFAULT NULL COMMENT &#39;更新时间&#39;,\n  `deleted` tinyint(1) DEFAULT &#39;0&#39; COMMENT &#39;0未删除 1删除&#39;,\n  PRIMARY KEY (`id`)\n) ENGINE=InnoDB DEFAULT CHARSET=utf8mb4 COMMENT=&#39;活动广场表&#39;;&amp;quot;},&amp;quot;attribs&amp;quot;:{&amp;quot;0&amp;quot;:&amp;quot;*0|g+og*0+1k&amp;quot;}},&amp;quot;apool&amp;quot;:{&amp;quot;numToAttrib&amp;quot;:{&amp;quot;0&amp;quot;:[&amp;quot;author&amp;quot;,&amp;quot;7220235268358848515&amp;quot;]},&amp;quot;nextNum&amp;quot;:1}},&amp;quot;type&amp;quot;:&amp;quot;text&amp;quot;,&amp;quot;referenceRecordMap&amp;quot;:{},&amp;quot;extra&amp;quot;:{&amp;quot;channel&amp;quot;:&amp;quot;saas&amp;quot;,&amp;quot;pasteRandomId&amp;quot;:&amp;quot;44fd6253-43ac-45ac-8588-8f718b8ea525&amp;quot;,&amp;quot;mention_page_title&amp;quot;:{},&amp;quot;external_mention_url&amp;quot;:{}},&amp;quot;isKeepQuoteContainer&amp;quot;:false,&amp;quot;isFromCode&amp;quot;:true,&amp;quot;selection&amp;quot;:[{&amp;quot;id&amp;quot;:14,&amp;quot;type&amp;quot;:&amp;quot;text&amp;quot;,&amp;quot;selection&amp;quot;:{&amp;quot;start&amp;quot;:0,&amp;quot;end&amp;quot;:936},&amp;quot;recordId&amp;quot;:&amp;quot;QTNEdN7cpoGi0txkAPdcTSP8n4N&amp;quot;}],&amp;quot;payloadMap&amp;quot;:{},&amp;quot;isCut&amp;quot;:false}&quot;&gt;&lt;/span&gt;&lt;/div&gt;&lt;/div&gt;&lt;/div&gt;&lt;/div&gt;&lt;/div&gt;&lt;/div&gt;&lt;/div&gt;&lt;/div&gt;" style="shape=partialRectangle;connectable=0;fillColor=default;top=0;left=0;bottom=0;right=0;align=left;spacingLeft=6;overflow=hidden;whiteSpace=wrap;html=1;" vertex="1" parent="wozH4koWUHIHTD2oKlZO-19">
          <mxGeometry x="30" width="510" height="350" as="geometry">
            <mxRectangle width="510" height="350" as="alternateBounds" />
          </mxGeometry>
        </mxCell>
        <mxCell id="wozH4koWUHIHTD2oKlZO-22" value="&lt;em style=&quot;font-weight: 400; text-align: left; white-space-collapse: preserve; background-color: rgb(251, 251, 251);&quot;&gt;activity_equity_bag&lt;/em&gt;&lt;span style=&quot;background-color: rgb(213, 232, 212);&quot;&gt;（活动权益订单详情)&lt;/span&gt;" style="shape=table;startSize=30;container=1;collapsible=1;childLayout=tableLayout;fixedRows=1;rowLines=0;fontStyle=1;align=center;resizeLast=1;html=1;labelBackgroundColor=default;fillColor=#d5e8d4;strokeColor=#82b366;" vertex="1" parent="1">
          <mxGeometry x="-1540" y="-270" width="530" height="280" as="geometry" />
        </mxCell>
        <mxCell id="wozH4koWUHIHTD2oKlZO-23" value="" style="shape=tableRow;horizontal=0;startSize=0;swimlaneHead=0;swimlaneBody=0;fillColor=none;collapsible=0;dropTarget=0;points=[[0,0.5],[1,0.5]];portConstraint=eastwest;top=0;left=0;right=0;bottom=1;" vertex="1" parent="wozH4koWUHIHTD2oKlZO-22">
          <mxGeometry y="30" width="530" height="30" as="geometry" />
        </mxCell>
        <mxCell id="wozH4koWUHIHTD2oKlZO-24" value="PK" style="shape=partialRectangle;connectable=0;fillColor=none;top=0;left=0;bottom=0;right=0;fontStyle=1;overflow=hidden;whiteSpace=wrap;html=1;" vertex="1" parent="wozH4koWUHIHTD2oKlZO-23">
          <mxGeometry width="30" height="30" as="geometry">
            <mxRectangle width="30" height="30" as="alternateBounds" />
          </mxGeometry>
        </mxCell>
        <mxCell id="wozH4koWUHIHTD2oKlZO-25" value="`ID` bigint(20) NOT NULL AUTO_INCREMENT COMMENT &#39;自增ID&#39;" style="shape=partialRectangle;connectable=0;fillColor=none;top=0;left=0;bottom=0;right=0;align=left;spacingLeft=6;fontStyle=5;overflow=hidden;whiteSpace=wrap;html=1;" vertex="1" parent="wozH4koWUHIHTD2oKlZO-23">
          <mxGeometry x="30" width="500" height="30" as="geometry">
            <mxRectangle width="500" height="30" as="alternateBounds" />
          </mxGeometry>
        </mxCell>
        <mxCell id="wozH4koWUHIHTD2oKlZO-26" value="" style="shape=tableRow;horizontal=0;startSize=0;swimlaneHead=0;swimlaneBody=0;fillColor=none;collapsible=0;dropTarget=0;points=[[0,0.5],[1,0.5]];portConstraint=eastwest;top=0;left=0;right=0;bottom=0;" vertex="1" parent="wozH4koWUHIHTD2oKlZO-22">
          <mxGeometry y="60" width="530" height="220" as="geometry" />
        </mxCell>
        <mxCell id="wozH4koWUHIHTD2oKlZO-27" value="" style="shape=partialRectangle;connectable=0;fillColor=none;top=0;left=0;bottom=0;right=0;editable=1;overflow=hidden;whiteSpace=wrap;html=1;" vertex="1" parent="wozH4koWUHIHTD2oKlZO-26">
          <mxGeometry width="30" height="220" as="geometry">
            <mxRectangle width="30" height="220" as="alternateBounds" />
          </mxGeometry>
        </mxCell>
        <mxCell id="wozH4koWUHIHTD2oKlZO-28" value="&lt;div style=&quot;line-height: 130%;&quot;&gt;&lt;div style=&quot;line-height: 130%;&quot;&gt;&lt;div style=&quot;line-height: 130%;&quot;&gt;&lt;div style=&quot;line-height: 130%;&quot;&gt;&lt;div style=&quot;line-height: 130%;&quot;&gt;&lt;div data-docx-has-block-data=&quot;false&quot; data-page-id=&quot;Co8VdgC0moM7NCxHO37cvej0neh&quot;&gt;&lt;div class=&quot;old-record-id-Ze5vdnJgfoNHqzxl2qscwm99n2c&quot; style=&quot;&quot;&gt;&lt;div class=&quot;old-record-id-Ze5vdnJgfoNHqzxl2qscwm99n2c&quot;&gt;&lt;div data-docx-has-block-data=&quot;false&quot; data-page-id=&quot;NvuWdaZeMolkfJxWdABclu5wnZb&quot;&gt;&lt;div class=&quot;old-record-id-QTNEdN7cpoGi0txkAPdcTSP8n4N&quot; style=&quot;white-space:pre;&quot;&gt;&lt;div data-docx-has-block-data=&quot;false&quot; data-page-id=&quot;Fh9HdJWjBoTVEhxsYV9cNeLmnhc&quot;&gt;&lt;div class=&quot;old-record-id-XcHudn9lnoD9ONxzxKbcXLS5nLc&quot;&gt;&lt;div data-docx-has-block-data=&quot;false&quot; data-page-id=&quot;Fh9HdJWjBoTVEhxsYV9cNeLmnhc&quot;&gt;&lt;div class=&quot;old-record-id-XcHudn9lnoD9ONxzxKbcXLS5nLc&quot;&gt;&lt;div data-docx-has-block-data=&quot;false&quot; data-page-id=&quot;Fh9HdJWjBoTVEhxsYV9cNeLmnhc&quot;&gt;&lt;div class=&quot;old-record-id-XcHudn9lnoD9ONxzxKbcXLS5nLc&quot;&gt;CREATE TABLE `activity_equity_order_detail` (&lt;br&gt;  `id` bigint(20) NOT NULL AUTO_INCREMENT,&lt;br&gt;  `&lt;em&gt;equity_order_id&lt;/em&gt;` bigint(20) DEFAULT NULL COMMENT &#39;权益订单id&#39;,&lt;br&gt;  `&lt;em&gt;equity_id&lt;/em&gt;` varchar(64) DEFAULT NULL COMMENT &#39;权益id&#39;,&lt;br&gt;  `&lt;em&gt;equity_status&lt;/em&gt;` varchar(64) DEFAULT NULL COMMENT &#39;权益状态: 0. 未完成 1.已完成&#39;,&lt;br&gt;  `create_id` bigint(20) DEFAULT &#39;0&#39; COMMENT &#39;创建人&#39;,&lt;br&gt;  `create_time` datetime DEFAULT NULL COMMENT &#39;创建时间&#39;,&lt;br&gt;  `update_id` bigint(20) DEFAULT &#39;0&#39; COMMENT &#39;更新人&#39;,&lt;br&gt;  `update_time` datetime DEFAULT NULL COMMENT &#39;更新时间&#39;,&lt;br&gt;  `deleted` tinyint(1) DEFAULT &#39;0&#39; COMMENT &#39;0未删除 1删除&#39;,&lt;br&gt;  PRIMARY KEY (`id`)&lt;br&gt;) ENGINE=InnoDB DEFAULT CHARSET=utf8mb4 COMMENT=&#39;活动权益关联表&#39;;&lt;/div&gt;&lt;/div&gt;&lt;span class=&quot;lark-record-clipboard&quot; data-lark-record-format=&quot;docx/text&quot; data-lark-record-data=&quot;{&amp;quot;rootId&amp;quot;:&amp;quot;Fh9HdJWjBoTVEhxsYV9cNeLmnhc&amp;quot;,&amp;quot;text&amp;quot;:{&amp;quot;initialAttributedTexts&amp;quot;:{&amp;quot;text&amp;quot;:{&amp;quot;0&amp;quot;:&amp;quot;\nCREATE TABLE `activity_equity_order_detail` (\n  `id` bigint(20) NOT NULL AUTO_INCREMENT,\n  `equity_order_id` bigint(20) DEFAULT NULL COMMENT &#39;权益订单id&#39;,\n  `equity_id` varchar(64) DEFAULT NULL COMMENT &#39;权益id&#39;,\n  `equity_status` varchar(64) DEFAULT NULL COMMENT &#39;权益状态: 0. 未完成 1.已完成&#39;,\n  `create_id` bigint(20) DEFAULT &#39;0&#39; COMMENT &#39;创建人&#39;,\n  `create_time` datetime DEFAULT NULL COMMENT &#39;创建时间&#39;,\n  `update_id` bigint(20) DEFAULT &#39;0&#39; COMMENT &#39;更新人&#39;,\n  `update_time` datetime DEFAULT NULL COMMENT &#39;更新时间&#39;,\n  `deleted` tinyint(1) DEFAULT &#39;0&#39; COMMENT &#39;0未删除 1删除&#39;,\n  PRIMARY KEY (`id`)\n) ENGINE=InnoDB DEFAULT CHARSET=utf8mb4 COMMENT=&#39;活动权益关联表&#39;;&amp;quot;},&amp;quot;attribs&amp;quot;:{&amp;quot;0&amp;quot;:&amp;quot;*0|3+2i*0+3*0*1+f*0|1+18*0+3*0*1+9*0|1+17*0+3*0*1+d*0|7+9l*0+1m&amp;quot;}},&amp;quot;apool&amp;quot;:{&amp;quot;numToAttrib&amp;quot;:{&amp;quot;0&amp;quot;:[&amp;quot;author&amp;quot;,&amp;quot;7220235268358848515&amp;quot;],&amp;quot;1&amp;quot;:[&amp;quot;italic&amp;quot;,&amp;quot;true&amp;quot;]},&amp;quot;nextNum&amp;quot;:2}},&amp;quot;type&amp;quot;:&amp;quot;text&amp;quot;,&amp;quot;referenceRecordMap&amp;quot;:{},&amp;quot;extra&amp;quot;:{&amp;quot;channel&amp;quot;:&amp;quot;saas&amp;quot;,&amp;quot;pasteRandomId&amp;quot;:&amp;quot;98993382-c1f1-4a12-aef3-fdc11be19f5c&amp;quot;,&amp;quot;mention_page_title&amp;quot;:{},&amp;quot;external_mention_url&amp;quot;:{}},&amp;quot;isKeepQuoteContainer&amp;quot;:false,&amp;quot;isFromCode&amp;quot;:true,&amp;quot;selection&amp;quot;:[{&amp;quot;id&amp;quot;:13,&amp;quot;type&amp;quot;:&amp;quot;text&amp;quot;,&amp;quot;selection&amp;quot;:{&amp;quot;start&amp;quot;:2630,&amp;quot;end&amp;quot;:3256},&amp;quot;recordId&amp;quot;:&amp;quot;XcHudn9lnoD9ONxzxKbcXLS5nLc&amp;quot;}],&amp;quot;payloadMap&amp;quot;:{},&amp;quot;isCut&amp;quot;:false}&quot;&gt;&lt;/span&gt;&lt;/div&gt;&lt;/div&gt;&lt;span class=&quot;lark-record-clipboard&quot; data-lark-record-format=&quot;docx/text&quot; data-lark-record-data=&quot;{&amp;quot;rootId&amp;quot;:&amp;quot;Fh9HdJWjBoTVEhxsYV9cNeLmnhc&amp;quot;,&amp;quot;text&amp;quot;:{&amp;quot;initialAttributedTexts&amp;quot;:{&amp;quot;text&amp;quot;:{&amp;quot;0&amp;quot;:&amp;quot;CREATE TABLE `activity_equity_order` (\n  `id` bigint(20) NOT NULL AUTO_INCREMENT,\n  `equity_bag_id` bigint(20) DEFAULT NULL COMMENT &#39;权益包id&#39;,\n  `shop_code` varchar(100) DEFAULT NULL COMMENT &#39;门店code&#39;,\n  `customer_id` bigint(20) DEFAULT NULL COMMENT &#39;用户id&#39;,\n  `user_mobile` varchar(100) DEFAULT NULL COMMENT &#39;用户手机号&#39;,\n  `user_name` varchar(100) DEFAULT NULL COMMENT &#39;用户名称&#39;,\n  `business_id` varchar(64) DEFAULT NULL COMMENT &#39;业务id&#39;,\n  `business_type` tinyint(1) DEFAULT NULL COMMENT &#39;业务类型: 0.邀约活动&#39;,\n  `order_no` varchar(50) DEFAULT NULL COMMENT &#39;订单号&#39;,\n  `order_money` decimal(8,2) DEFAULT NULL COMMENT &#39;订单金额&#39;,\n  `order_status` tinyint(1) DEFAULT NULL COMMENT &#39;订单状态: 待支付0/支付中1/已支付2/失败3&#39;,\n  `pay_no` bigint(20) DEFAULT NULL COMMENT &#39;支付流水&#39;,\n  `pay_date` datetime DEFAULT NULL COMMENT &#39;支付时间&#39;,\n  `employee_id` bigint(20) DEFAULT NULL COMMENT &#39;员工&#39;,\n  `create_id` bigint(20) DEFAULT &#39;0&#39; COMMENT &#39;创建人&#39;,\n  `create_time` datetime DEFAULT NULL COMMENT &#39;创建时间&#39;,\n  `update_id` bigint(20) DEFAULT &#39;0&#39; COMMENT &#39;更新人&#39;,\n  `update_time` datetime DEFAULT NULL COMMENT &#39;更新时间&#39;,\n  `deleted` tinyint(1) DEFAULT &#39;0&#39; COMMENT &#39;0未删除 1删除&#39;,\n  PRIMARY KEY (`id`)\n) ENGINE=InnoDB DEFAULT CHARSET=utf8mb4 COMMENT=&#39;活动权益订单表&#39;;&amp;quot;},&amp;quot;attribs&amp;quot;:{&amp;quot;0&amp;quot;:&amp;quot;*0|2+2a*0+3*0*1+d*0|j+sj*0+1m&amp;quot;}},&amp;quot;apool&amp;quot;:{&amp;quot;numToAttrib&amp;quot;:{&amp;quot;0&amp;quot;:[&amp;quot;author&amp;quot;,&amp;quot;7220235268358848515&amp;quot;],&amp;quot;1&amp;quot;:[&amp;quot;italic&amp;quot;,&amp;quot;true&amp;quot;]},&amp;quot;nextNum&amp;quot;:2}},&amp;quot;type&amp;quot;:&amp;quot;text&amp;quot;,&amp;quot;referenceRecordMap&amp;quot;:{},&amp;quot;extra&amp;quot;:{&amp;quot;channel&amp;quot;:&amp;quot;saas&amp;quot;,&amp;quot;pasteRandomId&amp;quot;:&amp;quot;c46bde28-36cb-46a2-acd8-2e1caee7ebdc&amp;quot;,&amp;quot;mention_page_title&amp;quot;:{},&amp;quot;external_mention_url&amp;quot;:{}},&amp;quot;isKeepQuoteContainer&amp;quot;:false,&amp;quot;isFromCode&amp;quot;:true,&amp;quot;selection&amp;quot;:[{&amp;quot;id&amp;quot;:13,&amp;quot;type&amp;quot;:&amp;quot;text&amp;quot;,&amp;quot;selection&amp;quot;:{&amp;quot;start&amp;quot;:1446,&amp;quot;end&amp;quot;:2629},&amp;quot;recordId&amp;quot;:&amp;quot;XcHudn9lnoD9ONxzxKbcXLS5nLc&amp;quot;}],&amp;quot;payloadMap&amp;quot;:{},&amp;quot;isCut&amp;quot;:false}&quot;&gt;&lt;/span&gt;&lt;/div&gt;&lt;/div&gt;&lt;span class=&quot;lark-record-clipboard&quot; data-lark-record-format=&quot;docx/text&quot; data-lark-record-data=&quot;{&amp;quot;rootId&amp;quot;:&amp;quot;Fh9HdJWjBoTVEhxsYV9cNeLmnhc&amp;quot;,&amp;quot;text&amp;quot;:{&amp;quot;initialAttributedTexts&amp;quot;:{&amp;quot;text&amp;quot;:{&amp;quot;0&amp;quot;:&amp;quot;CREATE TABLE `activity_equity_bag` (\n  `id` bigint(20) NOT NULL AUTO_INCREMENT,\n  `code` varchar(64) DEFAULT NULL COMMENT &#39;批次编号&#39;,\n  `name` varchar(64) DEFAULT NULL COMMENT &#39;批次名称&#39;,\n  `start_time` datetime DEFAULT NULL COMMENT &#39;开始时间&#39;,\n  `end_time` datetime DEFAULT NULL COMMENT &#39;结束时间&#39;,\n  `price` decimal(8,2)  DEFAULT NULL COMMENT &#39;权益价格&#39;,\n  `create_id` bigint(20) DEFAULT &#39;0&#39; COMMENT &#39;创建人&#39;,\n  `create_time` datetime DEFAULT NULL COMMENT &#39;创建时间&#39;,\n  `update_id` bigint(20) DEFAULT &#39;0&#39; COMMENT &#39;更新人&#39;,\n  `update_time` datetime DEFAULT NULL COMMENT &#39;更新时间&#39;,\n  `deleted` tinyint(1) DEFAULT &#39;0&#39; COMMENT &#39;0未删除 1删除&#39;,\n  PRIMARY KEY (`id`)\n) ENGINE=InnoDB DEFAULT CHARSET=utf8mb4 COMMENT=&#39;活动权益包&#39;;&amp;quot;},&amp;quot;attribs&amp;quot;:{&amp;quot;0&amp;quot;:&amp;quot;*0+e*0*1+j*0|d+gg*0+1k&amp;quot;}},&amp;quot;apool&amp;quot;:{&amp;quot;numToAttrib&amp;quot;:{&amp;quot;0&amp;quot;:[&amp;quot;author&amp;quot;,&amp;quot;7220235268358848515&amp;quot;],&amp;quot;1&amp;quot;:[&amp;quot;italic&amp;quot;,&amp;quot;true&amp;quot;]},&amp;quot;nextNum&amp;quot;:2}},&amp;quot;type&amp;quot;:&amp;quot;text&amp;quot;,&amp;quot;referenceRecordMap&amp;quot;:{},&amp;quot;extra&amp;quot;:{&amp;quot;channel&amp;quot;:&amp;quot;saas&amp;quot;,&amp;quot;pasteRandomId&amp;quot;:&amp;quot;ca19a98d-9265-4a86-a47d-aa1c188d7588&amp;quot;,&amp;quot;mention_page_title&amp;quot;:{},&amp;quot;external_mention_url&amp;quot;:{}},&amp;quot;isKeepQuoteContainer&amp;quot;:false,&amp;quot;isFromCode&amp;quot;:true,&amp;quot;selection&amp;quot;:[{&amp;quot;id&amp;quot;:13,&amp;quot;type&amp;quot;:&amp;quot;text&amp;quot;,&amp;quot;selection&amp;quot;:{&amp;quot;start&amp;quot;:0,&amp;quot;end&amp;quot;:681},&amp;quot;recordId&amp;quot;:&amp;quot;XcHudn9lnoD9ONxzxKbcXLS5nLc&amp;quot;}],&amp;quot;payloadMap&amp;quot;:{},&amp;quot;isCut&amp;quot;:false}&quot;&gt;&lt;/span&gt;&lt;/div&gt;&lt;/div&gt;&lt;span class=&quot;lark-record-clipboard&quot; data-lark-record-format=&quot;docx/text&quot; data-lark-record-data=&quot;{&amp;quot;rootId&amp;quot;:&amp;quot;NvuWdaZeMolkfJxWdABclu5wnZb&amp;quot;,&amp;quot;text&amp;quot;:{&amp;quot;initialAttributedTexts&amp;quot;:{&amp;quot;text&amp;quot;:{&amp;quot;0&amp;quot;:&amp;quot;CREATE TABLE `square_activity` (\n  `id` bigint(11) NOT NULL AUTO_INCREMENT,\n  `activity_id` bigint(20) DEFAULT NULL COMMENT &#39;活动id&#39;,\n  `activity_code` varchar(64) DEFAULT NULL COMMENT &#39;活动编码&#39;,\n  `activity_name` varchar(200) DEFAULT NULL COMMENT &#39;活动名称&#39;,\n  `activity_start_time` datetime DEFAULT NULL COMMENT &#39;活动开始时间&#39;,\n  `activity_end_time` datetime DEFAULT NULL COMMENT &#39;活动结束时间&#39;,\n  `activity_status` datetime DEFAULT NULL COMMENT &#39;活动状态 0.无效 1.有效&#39;,\n  `activity_type` tinyint(1) NOT NULL COMMENT &#39;活动类型：0.市场活动 1.满减活动 2.返券活动 4.礼券活动&#39;,\n  `activity_create_time` datetime DEFAULT NULL COMMENT &#39;活动创建时间&#39;,\n  `create_id` bigint(20) DEFAULT &#39;0&#39; COMMENT &#39;创建人&#39;,\n  `create_time` datetime DEFAULT NULL COMMENT &#39;创建时间&#39;,\n  `update_id` bigint(20) DEFAULT &#39;0&#39; COMMENT &#39;更新人&#39;,\n  `update_time` datetime DEFAULT NULL COMMENT &#39;更新时间&#39;,\n  `deleted` tinyint(1) DEFAULT &#39;0&#39; COMMENT &#39;0未删除 1删除&#39;,\n  PRIMARY KEY (`id`)\n) ENGINE=InnoDB DEFAULT CHARSET=utf8mb4 COMMENT=&#39;活动广场表&#39;;&amp;quot;},&amp;quot;attribs&amp;quot;:{&amp;quot;0&amp;quot;:&amp;quot;*0|g+og*0+1k&amp;quot;}},&amp;quot;apool&amp;quot;:{&amp;quot;numToAttrib&amp;quot;:{&amp;quot;0&amp;quot;:[&amp;quot;author&amp;quot;,&amp;quot;7220235268358848515&amp;quot;]},&amp;quot;nextNum&amp;quot;:1}},&amp;quot;type&amp;quot;:&amp;quot;text&amp;quot;,&amp;quot;referenceRecordMap&amp;quot;:{},&amp;quot;extra&amp;quot;:{&amp;quot;channel&amp;quot;:&amp;quot;saas&amp;quot;,&amp;quot;pasteRandomId&amp;quot;:&amp;quot;44fd6253-43ac-45ac-8588-8f718b8ea525&amp;quot;,&amp;quot;mention_page_title&amp;quot;:{},&amp;quot;external_mention_url&amp;quot;:{}},&amp;quot;isKeepQuoteContainer&amp;quot;:false,&amp;quot;isFromCode&amp;quot;:true,&amp;quot;selection&amp;quot;:[{&amp;quot;id&amp;quot;:14,&amp;quot;type&amp;quot;:&amp;quot;text&amp;quot;,&amp;quot;selection&amp;quot;:{&amp;quot;start&amp;quot;:0,&amp;quot;end&amp;quot;:936},&amp;quot;recordId&amp;quot;:&amp;quot;QTNEdN7cpoGi0txkAPdcTSP8n4N&amp;quot;}],&amp;quot;payloadMap&amp;quot;:{},&amp;quot;isCut&amp;quot;:false}&quot;&gt;&lt;/span&gt;&lt;/div&gt;&lt;/div&gt;&lt;/div&gt;&lt;/div&gt;&lt;/div&gt;&lt;/div&gt;&lt;/div&gt;&lt;/div&gt;" style="shape=partialRectangle;connectable=0;fillColor=default;top=0;left=0;bottom=0;right=0;align=left;spacingLeft=6;overflow=hidden;whiteSpace=wrap;html=1;" vertex="1" parent="wozH4koWUHIHTD2oKlZO-26">
          <mxGeometry x="30" width="500" height="220" as="geometry">
            <mxRectangle width="500" height="220" as="alternateBounds" />
          </mxGeometry>
        </mxCell>
        <mxCell id="wozH4koWUHIHTD2oKlZO-31" style="edgeStyle=orthogonalEdgeStyle;rounded=0;orthogonalLoop=1;jettySize=auto;html=1;" edge="1" parent="1" source="wozH4koWUHIHTD2oKlZO-5" target="wozH4koWUHIHTD2oKlZO-19">
          <mxGeometry relative="1" as="geometry" />
        </mxCell>
        <mxCell id="wozH4koWUHIHTD2oKlZO-33" style="edgeStyle=orthogonalEdgeStyle;rounded=0;orthogonalLoop=1;jettySize=auto;html=1;entryX=0;entryY=0.5;entryDx=0;entryDy=0;" edge="1" parent="1" source="wozH4koWUHIHTD2oKlZO-12" target="wozH4koWUHIHTD2oKlZO-26">
          <mxGeometry relative="1" as="geometry" />
        </mxCell>
      </root>
    </mxGraphModel>
  </diagram>
</mxfile>
